<svg width="2008" height="301" viewBox="0 0 2008 301" fill="none" xmlns="http://www.w3.org/2000/svg">
<path fill-rule="evenodd" clip-rule="evenodd" d="M864.805 1.14083C860.406 1.56814 851.408 2.50507 844.811 3.22488L832.814 4.53424V40.9313C832.814 60.9487 832.556 77.3283 832.243 77.3261C831.929 77.3261 826.016 75.1141 819.103 72.4085C803.775 66.4124 781.219 65.9623 766.704 71.3643C735.076 83.1348 716.392 117.446 719.283 158.449C720.873 181.031 723.273 189.339 732.813 205.326C751.8 237.135 791.143 245.464 829.386 225.768L843.097 218.707L848.976 225.711C853.994 231.689 856.419 232.715 865.543 232.715H876.231V116.175C876.231 52.078 875.458 -0.200511 874.517 0.000578178C873.575 0.201667 869.204 0.715798 864.805 1.14083ZM926.503 120.745V232.715H1005.06H1083.62L1080.45 217.618C1078.71 209.313 1076.72 201.601 1076.03 200.479C1075.33 199.357 1051.18 198.439 1022.34 198.439H969.92V167.59V136.741H1003.05C1021.28 136.741 1036.16 135.971 1036.13 135.027C1036.08 133.496 1033.71 122.132 1030.41 107.606C1029.28 102.597 1028.48 102.464 999.583 102.464H969.92V72.7582V43.0519H1017.91C1072.45 43.0519 1068 45.145 1063.29 21.725L1060.69 8.77535H993.598H926.503V120.745ZM1185.24 69.3488C1172.18 72.9707 1162.12 77.6414 1151.93 84.8097L1145.41 89.3937L1140.01 82.7898C1137.04 79.1565 1134.57 75.4157 1134.53 74.472C1134.48 73.5282 1129.31 72.7582 1123.02 72.7582H1111.6V152.737V232.715H1132.16H1152.73V175.62V118.526L1167.01 111.283C1184.11 102.613 1197.8 101.692 1207.09 108.589C1218.37 116.961 1218.93 120.256 1218.96 178.444L1219 232.715H1240.7H1262.41V179.397C1262.41 119.191 1260.4 104.468 1250.04 89.1149C1237.5 70.5165 1210.61 62.3152 1185.24 69.3488ZM1354.33 68.2633C1348.95 69.3602 1339.3 73.1124 1332.89 76.6017C1280.14 105.314 1283.35 206.651 1337.8 231.26C1352.15 237.745 1377.88 237.546 1394.95 230.816C1410.68 224.615 1410.94 224.628 1410.94 231.646C1410.94 240.044 1405.6 251.288 1398.49 257.851C1393.13 262.799 1389.77 263.669 1373.43 264.355C1357.14 265.038 1352.44 264.302 1339.17 258.992C1330.71 255.607 1323.44 253.197 1323.02 253.631C1322 254.68 1310.4 280.988 1310.4 282.256C1310.4 285.005 1336.69 294.589 1353.45 297.946C1385.64 304.399 1417.04 297.306 1434.77 279.576C1439.48 274.864 1445.55 266.251 1448.26 260.431C1452.99 250.267 1453.21 246.391 1453.89 161.306L1454.61 72.7582H1443.13C1433.08 72.7582 1431.03 73.5968 1426.7 79.4443L1421.76 86.1305L1413.5 80.676C1396.81 69.6641 1372.49 64.5615 1354.33 68.2633ZM1717.93 68.1742C1695.83 72.797 1678.23 87.7644 1667.18 111.331C1661.71 122.998 1661.17 126.682 1661.22 151.594C1661.27 183.709 1665.66 198.08 1680.58 215.024C1698.56 235.45 1732.04 242.061 1760.56 230.816C1767.48 228.092 1773.39 225.862 1773.7 225.862C1774.02 225.86 1774.27 229.717 1774.27 234.429C1774.26 245.068 1767.51 256.505 1758.49 261.167C1747.3 266.957 1719.94 265.877 1702.95 258.976C1695.2 255.824 1688.1 254.024 1687.19 254.977C1686.27 255.93 1682.89 262.691 1679.68 270.001L1673.85 283.296L1683.75 287.676C1711.95 300.151 1746.87 303.288 1772.99 295.697C1783.39 292.672 1788.94 289.182 1798.38 279.747C1817.4 260.731 1817.69 258.859 1817.69 158.034V72.7582H1806.7C1797.1 72.7582 1795.05 73.6425 1790.58 79.6843L1785.46 86.6105L1779.68 82.0631C1765.72 71.0809 1736 64.397 1717.93 68.1742ZM60.5527 70.6833C35.2567 75.642 16.9734 90.0473 5.83808 113.785C0.440675 125.293 -0.0938709 128.981 0.0112437 153.879C0.109503 176.911 0.913919 183.028 5.0431 192.086C16.1304 216.42 39.9273 232.935 68.4477 236.081C93.3987 238.832 136.02 226.221 132.424 217.147C131.583 215.026 128.866 207.931 126.389 201.38L121.883 189.47L111.161 193.674C96.7098 199.344 83.3236 201.364 73.0223 199.43C36.8195 192.639 30.9812 127.233 65.02 109.752C76.7654 103.719 89.0523 104.197 109.81 111.493L121.704 115.675L126.274 103.927C128.788 97.467 131.505 90.5431 132.314 88.5414C134.93 82.07 95.3023 67.6921 76.9049 68.4393C73.5093 68.5764 66.1512 69.5865 60.5527 70.6833ZM336.947 71.2203C319.112 75.3906 306.937 82.3739 296.169 94.606C282.482 110.156 276.872 126.545 276.659 151.594C276.264 198.619 298.315 227.846 339.78 235.256C368.89 240.459 401.768 231.362 420.095 213.034C440.759 192.372 447.749 156.285 437.576 122.795C433.214 108.433 430.679 104.373 418.452 92.1747C408.473 82.2185 401.021 76.9764 392.932 74.2252C377.505 68.9786 352.317 67.6258 336.947 71.2203ZM1534.34 71.5996C1526.17 73.43 1515.12 76.5811 1509.78 78.6012C1498.95 82.6984 1498.97 82.4698 1506.98 105.892C1511.25 118.364 1510.9 118.257 1529.77 112.926C1536.68 110.972 1548.33 109.361 1555.65 109.347C1567.34 109.322 1569.78 110.136 1575.65 115.999C1579.43 119.779 1582.33 125.13 1582.33 128.327C1582.33 133.962 1582.27 133.976 1555.48 134.872C1526.73 135.832 1518.97 138.233 1506.14 150.141C1482.22 172.347 1488.72 216.578 1517.98 230.681C1525.96 234.534 1532.92 235.859 1545.81 235.981C1560.91 236.122 1564.9 235.201 1578.77 228.378L1594.55 220.611L1599.75 226.664C1603.96 231.559 1606.94 232.715 1615.35 232.715H1625.74V173.076C1625.74 105.483 1625.57 104.633 1608.22 88.6419C1588.84 70.777 1563.79 65.0003 1534.34 71.5996ZM1912.26 71.2706C1875.54 80.6326 1854.36 110.348 1854.28 152.586C1854.21 191.412 1874.46 220.714 1909.1 231.888C1933.35 239.712 1975.57 235.482 1991.25 223.657L1996.81 219.464L1990.48 204.572L1984.15 189.68L1976.54 192.861C1941.79 207.38 1908.78 198.068 1901.13 171.589L1899.65 166.447H1953.82H2008L2006.77 147.595C2003.68 100.04 1979.55 71.787 1939.91 69.2917C1930.77 68.7181 1918.95 69.5636 1912.26 71.2706ZM165.564 152.737V232.715H186.13H206.696V182.457V132.2L216.408 125.073C227.657 116.819 242.017 110.188 253.168 108.097L260.979 106.63L256.863 90.6322C254.601 81.8323 252.142 74.0264 251.402 73.286C248.916 70.7998 226.229 79.4398 213.924 87.561C207.215 91.9873 201.457 95.6092 201.125 95.6092C200.794 95.6092 197.327 90.4677 193.422 84.1837C186.59 73.1923 185.925 72.7582 175.941 72.7582H165.564V152.737ZM483.193 75.3495C454.993 79.1404 456.055 73.1421 474.247 125.9C483.02 151.343 494.948 185.825 500.752 202.524L511.303 232.889L529.666 232.231L548.029 231.573L562.859 185.299C571.017 159.85 578.416 139.026 579.303 139.026C580.189 139.026 587.977 160.14 596.608 185.946L612.302 232.866L630.582 232.219L648.863 231.573L674.548 156.164C688.674 114.69 700.827 78.9553 701.553 76.7571C702.748 73.1283 700.772 72.7582 680.231 72.7582H657.592L645.26 117.318C638.478 141.825 632.372 161.877 631.691 161.877C631.008 161.877 624.406 141.825 617.018 117.318L603.584 72.7582H580.039H556.493L554.143 81.3273C543.673 119.514 531.325 162.494 530.618 163.2C530.145 163.673 523.653 143.85 516.188 119.153C508.725 94.4529 501.588 74.0424 500.332 73.7978C499.075 73.5533 491.363 74.2503 483.193 75.3495ZM824.299 109.704L832.924 114.038L832.297 152.241L831.671 190.441L822.531 194.94C811.14 200.548 791.081 200.847 781.125 195.559C758.39 183.485 757.273 124.564 779.5 110.001C791.908 101.868 808.498 101.758 824.299 109.704ZM1400.09 109.818L1410.94 114.671V151.939V189.205L1401.23 194.289C1394.35 197.893 1387.41 199.405 1377.41 199.478C1360.41 199.602 1352.89 195.073 1345.25 180.112C1338.53 166.966 1338.12 140.123 1344.42 126.458C1355 103.543 1373.61 97.9811 1400.09 109.818ZM1764.56 109.423L1774.28 113.634V151.418V189.205L1764.56 194.268C1753.07 200.26 1733.27 201.108 1722.86 196.055C1699.5 184.712 1697.98 125.06 1720.66 110.195C1733.32 101.902 1746.68 101.669 1764.56 109.423ZM380.364 111.248C394.422 121.556 402.118 149.773 396.517 170.476C395.068 175.834 390.788 183.741 387.007 188.048C373.892 202.986 344.012 204.014 331.001 189.975C316.431 174.253 317.766 126.92 333.136 114.198C344.959 104.416 368.996 102.915 380.364 111.248ZM1951.66 110.864C1957.04 114.386 1966.22 129.214 1966.22 134.364C1966.22 135.9 1954.5 136.741 1933.09 136.741C1914.87 136.741 1899.96 136.037 1899.96 135.178C1899.96 134.316 1902.16 129.058 1904.86 123.492C1913.24 106.171 1935.38 100.198 1951.66 110.864ZM1584.15 174.815C1584.79 185.843 1584.35 186.972 1577.3 192.207C1560.35 204.796 1544.07 206.24 1533.9 196.062C1528.1 190.269 1527.19 187.92 1528.39 181.931C1529.99 173.901 1535.46 166.877 1542.34 163.993C1544.85 162.94 1555.13 162.291 1565.19 162.549L1583.47 163.02L1584.15 174.815Z" 
fill="#6B7280"/>
</svg>
