<svg width="2008" height="542" viewBox="0 0 2008 542" fill="none" xmlns="http://www.w3.org/2000/svg">
<path fill-rule="evenodd" clip-rule="evenodd" d="M11.125 11.288L0 22.4945V44.7475C0 56.9865 0.113 67 0.251 67C0.579 67 67 0.579 67 0.251C67 0.113 56.931 0.0185 44.625 0.0405L22.25 0.0815L11.125 11.288ZM56.125 56.291L0 112.499V135.249C0 147.762 0.1125 158 0.2505 158C0.578 158 158 0.578 158 0.2505C158 0.1125 147.707 0.0185 135.125 0.0415L112.25 0.083L56.125 56.291ZM158.124 45.292L112.997 90.5015L158 135.5L203.003 180.499L101.502 281.999L0 383.498V406.249C0 418.762 0.113 429 0.251 429C0.389 429 51.126 378.375 113 316.5C174.874 254.625 225.724 204 226.001 204C226.278 204 246.528 224.025 271 248.5C295.472 272.975 315.722 293 315.999 293C316.275 293 341.814 267.687 372.752 236.749L429.003 180.499L383.999 135.499L338.996 90.5L383.998 45.502C408.749 20.753 429 0.3905 429 0.252C429 0.1135 418.762 0 406.25 0H383.499L338.75 44.7495C314.137 69.3615 294 89.725 294 90.0015C294 90.278 314.25 110.753 339.001 135.501L384.003 180.499L350.253 214.249C331.69 232.812 316.276 248 316 248C315.725 248 280.062 212.562 236.749 169.249L157.997 90.4985L202.999 45.501C227.749 20.753 248 0.3905 248 0.252C248 0.1135 237.932 0.0185 225.625 0.0415L203.25 0.083L158.124 45.292ZM248.625 44.7905C219.198 74.2715 204 89.8395 204 90.5C204 91.162 222.87 110.371 259.75 147.251C290.412 177.913 315.726 203 316.002 203C316.279 203 321.568 197.938 327.755 191.751L339.005 180.501L294.003 135.503C269.251 110.754 249 90.2775 249 90C249 89.7225 269.025 69.4725 293.5 45C317.975 20.5275 338 0.3905 338 0.252C338 0.1135 327.931 0.0185 315.625 0.0415L293.25 0.083L248.625 44.7905ZM429.124 45.2915L383.999 90.5L417.749 124.251L451.5 158.001L496.75 112.752L542 67.5015V45.2505C542 33.013 541.886 23 541.748 23C541.609 23 521.246 43.251 496.497 68.0025L451.499 113.005L440.75 102.256C433.881 95.387 430 91.143 430 90.501C430 89.835 445.019 74.4785 474.5 45C498.975 20.5275 519 0.3905 519 0.252C519 0.1135 508.931 0.0185 496.625 0.0415L474.25 0.083L429.124 45.2915ZM45.125 158.29L0 203.499V225.749C0 237.987 0.1135 248 0.252 248C0.3905 248 20.7535 227.749 45.5025 202.997L90.5005 157.995L101.753 169.247L113.005 180.499L56.502 236.998L0 293.496V315.749C0 327.987 0.1125 338 0.2505 338C0.388 338 35.9385 302.563 79.251 259.25L158.001 180.499L124.252 146.749C105.689 128.187 90.445 113.018 90.376 113.041C90.3065 113.064 69.944 133.426 45.125 158.29ZM429 225.5C367.263 287.329 316.468 337.936 316.123 337.958C315.778 337.981 295.472 317.975 271 293.5C246.528 269.025 226.278 249 226.002 249C225.725 249 174.762 299.738 112.749 361.75L0 474.5V496.75C0 508.988 0.113 519 0.251 519C0.389 519 51.126 468.375 113 406.5C174.874 344.625 225.725 294 226.001 294C226.278 294 246.753 314.251 271.501 339.001L316.498 384.003L429.249 271.251L542 158.501V135.751C542 123.238 541.831 113.018 541.625 113.041C541.419 113.064 490.737 163.671 429 225.5ZM1542 175.5C1542 175.775 1540.88 176 1539.5 176C1538.12 176 1537 176.225 1537 176.5C1537 176.775 1536.1 177 1535 177C1533.9 177 1533 177.225 1533 177.5C1533 177.775 1532.1 178 1531 178C1529.9 178 1529 178.225 1529 178.5C1529 178.775 1528.32 179 1527.5 179C1526.68 179 1526 179.225 1526 179.5C1526 179.775 1525.55 180 1525 180C1524.45 180 1524 180.225 1524 180.5C1524 180.775 1523.32 181 1522.5 181C1521.68 181 1521 181.225 1521 181.5C1521 181.775 1520.55 182 1520 182C1519.45 182 1519 182.225 1519 182.5C1519 182.775 1518.6 183 1518.11 183C1517.62 183 1516.9 183.45 1516.5 184C1516.1 184.55 1515.43 185 1515 185C1514.57 185 1513.9 185.45 1513.5 186C1513.1 186.55 1512.47 187 1512.09 187C1511.71 187 1510.77 187.675 1510 188.5C1509.23 189.325 1508.35 190 1508.04 190C1507.3 190 1503 194.304 1503 195.036C1503 195.345 1502.32 196.229 1501.5 197C1500.68 197.771 1500 198.711 1500 199.09C1500 199.469 1499.55 200.104 1499 200.5C1498.45 200.896 1498 201.621 1498 202.111C1498 202.6 1497.78 203 1497.5 203C1497.22 203 1497 203.45 1497 204C1497 204.55 1496.78 205 1496.5 205C1496.22 205 1496 205.45 1496 206C1496 206.55 1495.78 207 1495.5 207C1495.22 207 1495 207.675 1495 208.5C1495 209.325 1494.78 210 1494.5 210C1494.22 210 1494 210.675 1494 211.5C1494 212.325 1493.78 213 1493.5 213C1493.22 213 1493 213.9 1493 215C1493 216.1 1492.78 217 1492.5 217C1492.18 217 1492 220.833 1492 227.5C1492 234.167 1492.18 238 1492.5 238C1492.78 238 1493 238.9 1493 240C1493 241.1 1493.22 242 1493.5 242C1493.78 242 1494 242.675 1494 243.5C1494 244.325 1494.22 245 1494.5 245C1494.78 245 1495 245.675 1495 246.5C1495 247.325 1495.22 248 1495.5 248C1495.78 248 1496 248.45 1496 249C1496 249.55 1496.22 250 1496.5 250C1496.78 250 1497 250.4 1497 250.889C1497 251.379 1497.45 252.104 1498 252.5C1498.55 252.896 1499 253.531 1499 253.91C1499 254.289 1499.68 255.229 1500.5 256C1501.32 256.771 1502 257.653 1502 257.961C1502 258.691 1507.31 264 1508.04 264C1508.35 264 1509.23 264.675 1510 265.5C1510.77 266.325 1511.71 267 1512.09 267C1512.47 267 1513.1 267.45 1513.5 268C1513.9 268.55 1514.57 269 1515 269C1515.43 269 1516.1 269.45 1516.5 270C1516.9 270.55 1517.62 271 1518.11 271C1518.6 271 1519 271.225 1519 271.5C1519 271.775 1519.45 272 1520 272C1520.55 272 1521 272.225 1521 272.5C1521 272.775 1521.45 273 1522 273C1522.55 273 1523 273.225 1523 273.5C1523 273.775 1523.45 274 1524 274C1524.55 274 1525 274.225 1525 274.5C1525 274.775 1525.45 275 1526 275C1526.55 275 1527 275.225 1527 275.5C1527 275.775 1527.45 276 1528 276C1528.55 276 1529 276.225 1529 276.5C1529 276.775 1529.45 277 1530 277C1530.55 277 1531 277.225 1531 277.5C1531 277.775 1531.45 278 1532 278C1532.55 278 1533 278.225 1533 278.5C1533 278.775 1533.68 279 1534.5 279C1535.32 279 1536 279.225 1536 279.5C1536 279.775 1536.45 280 1537 280C1537.55 280 1538 280.225 1538 280.5C1538 280.775 1538.68 281 1539.5 281C1540.32 281 1541 281.225 1541 281.5C1541 281.775 1541.45 282 1542 282C1542.55 282 1543 282.225 1543 282.5C1543 282.775 1543.68 283 1544.5 283C1545.32 283 1546 283.225 1546 283.5C1546 283.775 1546.45 284 1547 284C1547.55 284 1548 284.225 1548 284.5C1548 284.775 1548.68 285 1549.5 285C1550.32 285 1551 285.225 1551 285.5C1551 285.775 1551.68 286 1552.5 286C1553.32 286 1554 286.225 1554 286.5C1554 286.775 1554.45 287 1555 287C1555.55 287 1556 287.225 1556 287.5C1556 287.775 1556.68 288 1557.5 288C1558.32 288 1559 288.225 1559 288.5C1559 288.775 1559.45 289 1560 289C1560.55 289 1561 289.225 1561 289.5C1561 289.775 1561.68 290 1562.5 290C1563.32 290 1564 290.225 1564 290.5C1564 290.775 1564.45 291 1565 291C1565.55 291 1566 291.225 1566 291.5C1566 291.775 1566.45 292 1567 292C1567.55 292 1568 292.225 1568 292.5C1568 292.775 1568.45 293 1569 293C1569.55 293 1570 293.225 1570 293.5C1570 293.775 1570.36 294 1570.8 294C1571.24 294 1572.23 294.675 1573 295.5C1573.77 296.325 1574.66 297 1574.97 297C1575.76 297 1578 299.305 1578 300.117C1578 300.481 1578.45 301.104 1579 301.5C1579.55 301.896 1580 302.621 1580 303.111C1580 303.6 1580.22 304 1580.5 304C1580.78 304 1581 304.675 1581 305.5C1581 306.325 1581.22 307 1581.5 307C1581.8 307 1582 309.167 1582 312.5C1582 315.833 1581.8 318 1581.5 318C1581.22 318 1581 318.675 1581 319.5C1581 320.325 1580.78 321 1580.5 321C1580.22 321 1580 321.359 1580 321.799C1580 322.239 1579.32 323.229 1578.5 324C1577.68 324.771 1577 325.665 1577 325.987C1577 326.781 1575.73 328 1574.9 328C1574.52 328 1573.9 328.45 1573.5 329C1573.1 329.55 1572.38 330 1571.89 330C1571.4 330 1571 330.225 1571 330.5C1571 330.775 1570.55 331 1570 331C1569.45 331 1569 331.225 1569 331.5C1569 331.775 1568.32 332 1567.5 332C1566.68 332 1566 332.225 1566 332.5C1566 332.778 1564.67 333 1563 333C1561.33 333 1560 333.222 1560 333.5C1560 333.775 1559.1 334 1558 334C1556.9 334 1556 333.775 1556 333.5C1556 333.222 1554.67 333 1553 333C1551.33 333 1550 332.778 1550 332.5C1550 332.225 1549.1 332 1548 332C1546.9 332 1546 331.775 1546 331.5C1546 331.225 1545.6 331 1545.11 331C1544.62 331 1543.9 330.55 1543.5 330C1543.1 329.45 1542.43 329 1542 329C1541.57 329 1540.9 328.55 1540.5 328C1540.1 327.45 1539.48 327 1539.12 327C1538.26 327 1536 324.741 1536 323.883C1536 323.519 1535.55 322.896 1535 322.5C1534.45 322.104 1534 321.428 1534 321C1534 320.572 1533.55 319.896 1533 319.5C1532.41 319.076 1532 318.205 1532 317.389C1532 316.625 1531.78 316 1531.5 316C1531.22 316 1531 315.55 1531 315C1531 314.45 1530.78 314 1530.5 314C1530.22 314 1530 313.1 1530 312C1530 310.9 1529.78 310 1529.5 310C1529.21 310 1529 308.333 1529 306V302H1507.5H1486V304.5C1486 305.875 1486.22 307 1486.5 307C1486.8 307 1487 308.833 1487 311.5C1487 314.167 1487.2 316 1487.5 316C1487.78 316 1488 317.125 1488 318.5C1488 319.875 1488.22 321 1488.5 321C1488.78 321 1489 321.675 1489 322.5C1489 323.325 1489.22 324 1489.5 324C1489.78 324 1490 324.675 1490 325.5C1490 326.325 1490.22 327 1490.5 327C1490.78 327 1491 327.675 1491 328.5C1491 329.325 1491.22 330 1491.5 330C1491.78 330 1492 330.45 1492 331C1492 331.55 1492.22 332 1492.5 332C1492.78 332 1493 332.45 1493 333C1493 333.55 1493.22 334 1493.5 334C1493.78 334 1494 334.45 1494 335C1494 335.55 1494.22 336 1494.5 336C1494.78 336 1495 336.4 1495 336.889C1495 337.379 1495.45 338.104 1496 338.5C1496.55 338.896 1497 339.531 1497 339.91C1497 340.289 1497.68 341.229 1498.5 342C1499.32 342.771 1500 343.652 1500 343.958C1500 344.686 1507.31 352 1508.04 352C1508.35 352 1509.23 352.675 1510 353.5C1510.77 354.325 1511.71 355 1512.09 355C1512.47 355 1513.1 355.45 1513.5 356C1513.9 356.55 1514.62 357 1515.11 357C1515.6 357 1516 357.225 1516 357.5C1516 357.775 1516.45 358 1517 358C1517.55 358 1518 358.225 1518 358.5C1518 358.775 1518.45 359 1519 359C1519.55 359 1520 359.225 1520 359.5C1520 359.775 1520.45 360 1521 360C1521.55 360 1522 360.225 1522 360.5C1522 360.775 1522.45 361 1523 361C1523.55 361 1524 361.225 1524 361.5C1524 361.775 1524.68 362 1525.5 362C1526.32 362 1527 362.225 1527 362.5C1527 362.775 1527.68 363 1528.5 363C1529.32 363 1530 363.225 1530 363.5C1530 363.775 1530.68 364 1531.5 364C1532.32 364 1533 364.225 1533 364.5C1533 364.775 1533.9 365 1535 365C1536.1 365 1537 365.225 1537 365.5C1537 365.778 1538.33 366 1540 366C1541.67 366 1543 366.222 1543 366.5C1543 366.821 1547.83 367 1556.5 367C1565.17 367 1570 366.821 1570 366.5C1570 366.222 1571.33 366 1573 366C1574.67 366 1576 365.778 1576 365.5C1576 365.225 1576.9 365 1578 365C1579.1 365 1580 364.775 1580 364.5C1580 364.225 1580.9 364 1582 364C1583.1 364 1584 363.775 1584 363.5C1584 363.225 1584.68 363 1585.5 363C1586.32 363 1587 362.775 1587 362.5C1587 362.225 1587.45 362 1588 362C1588.55 362 1589 361.775 1589 361.5C1589 361.225 1589.45 361 1590 361C1590.55 361 1591 360.775 1591 360.5C1591 360.225 1591.68 360 1592.5 360C1593.32 360 1594 359.775 1594 359.5C1594 359.225 1594.4 359 1594.89 359C1595.38 359 1596.1 358.55 1596.5 358C1596.9 357.45 1597.62 357 1598.11 357C1598.6 357 1599 356.775 1599 356.5C1599 356.225 1599.36 356 1599.8 356C1600.24 356 1601.23 355.325 1602 354.5C1602.77 353.675 1603.65 353 1603.96 353C1604.74 353 1614 343.654 1614 342.867C1614 342.512 1614.45 341.896 1615 341.5C1615.55 341.104 1616 340.379 1616 339.889C1616 339.4 1616.22 339 1616.5 339C1616.78 339 1617 338.6 1617 338.111C1617 337.621 1617.45 336.896 1618 336.5C1618.55 336.104 1619 335.379 1619 334.889C1619 334.4 1619.22 334 1619.5 334C1619.78 334 1620 333.325 1620 332.5C1620 331.675 1620.22 331 1620.5 331C1620.78 331 1621 330.55 1621 330C1621 329.45 1621.22 329 1621.5 329C1621.78 329 1622 328.1 1622 327C1622 325.9 1622.22 325 1622.5 325C1622.78 325 1623 324.1 1623 323C1623 321.9 1623.22 321 1623.5 321C1623.82 321 1624 317 1624 310C1624 303 1623.82 299 1623.5 299C1623.22 299 1623 298.1 1623 297C1623 295.9 1622.78 295 1622.5 295C1622.22 295 1622 294.325 1622 293.5C1622 292.675 1621.78 292 1621.5 292C1621.22 292 1621 291.325 1621 290.5C1621 289.675 1620.78 289 1620.5 289C1620.22 289 1620 288.55 1620 288C1620 287.45 1619.78 287 1619.5 287C1619.22 287 1619 286.6 1619 286.111C1619 285.621 1618.55 284.896 1618 284.5C1617.45 284.104 1617 283.428 1617 283C1617 282.572 1616.55 281.896 1616 281.5C1615.45 281.104 1615 280.488 1615 280.133C1615 279.344 1606.74 271 1605.96 271C1605.65 271 1604.77 270.325 1604 269.5C1603.23 268.675 1602.29 268 1601.91 268C1601.53 268 1600.9 267.55 1600.5 267C1600.1 266.45 1599.38 266 1598.89 266C1598.4 266 1598 265.775 1598 265.5C1598 265.225 1597.6 265 1597.11 265C1596.62 265 1595.9 264.55 1595.5 264C1595.1 263.45 1594.38 263 1593.89 263C1593.4 263 1593 262.775 1593 262.5C1593 262.225 1592.55 262 1592 262C1591.45 262 1591 261.775 1591 261.5C1591 261.225 1590.55 261 1590 261C1589.45 261 1589 260.775 1589 260.5C1589 260.225 1588.32 260 1587.5 260C1586.68 260 1586 259.775 1586 259.5C1586 259.225 1585.55 259 1585 259C1584.45 259 1584 258.775 1584 258.5C1584 258.225 1583.55 258 1583 258C1582.45 258 1582 257.775 1582 257.5C1582 257.225 1581.32 257 1580.5 257C1579.68 257 1579 256.775 1579 256.5C1579 256.225 1578.55 256 1578 256C1577.45 256 1577 255.775 1577 255.5C1577 255.225 1576.32 255 1575.5 255C1574.68 255 1574 254.775 1574 254.5C1574 254.225 1573.32 254 1572.5 254C1571.68 254 1571 253.775 1571 253.5C1571 253.225 1570.55 253 1570 253C1569.45 253 1569 252.775 1569 252.5C1569 252.225 1568.32 252 1567.5 252C1566.68 252 1566 251.775 1566 251.5C1566 251.225 1565.32 251 1564.5 251C1563.68 251 1563 250.775 1563 250.5C1563 250.225 1562.32 250 1561.5 250C1560.68 250 1560 249.775 1560 249.5C1560 249.225 1559.32 249 1558.5 249C1557.68 249 1557 248.775 1557 248.5C1557 248.225 1556.55 248 1556 248C1555.45 248 1555 247.775 1555 247.5C1555 247.225 1554.32 247 1553.5 247C1552.68 247 1552 246.775 1552 246.5C1552 246.225 1551.55 246 1551 246C1550.45 246 1550 245.775 1550 245.5C1550 245.225 1549.55 245 1549 245C1548.45 245 1548 244.775 1548 244.5C1548 244.225 1547.6 244 1547.11 244C1546.62 244 1545.9 243.55 1545.5 243C1545.1 242.45 1544.49 242 1544.13 242C1543.22 242 1536 234.68 1536 233.758C1536 233.341 1535.78 233 1535.5 233C1535.22 233 1535 232.325 1535 231.5C1535 230.675 1534.78 230 1534.5 230C1534.2 230 1534 228 1534 225C1534 222 1534.2 220 1534.5 220C1534.78 220 1535 219.325 1535 218.5C1535 217.675 1535.22 217 1535.5 217C1535.78 217 1536 216.657 1536 216.239C1536 215.249 1541.25 210 1542.24 210C1542.66 210 1543 209.775 1543 209.5C1543 209.225 1543.45 209 1544 209C1544.55 209 1545 208.775 1545 208.5C1545 208.225 1545.68 208 1546.5 208C1547.32 208 1548 207.775 1548 207.5C1548 207.215 1549.49 207 1551.46 207C1553.74 207 1555.02 206.787 1555.21 206.375C1555.44 205.875 1555.56 205.875 1555.79 206.375C1555.98 206.787 1557.26 207 1559.54 207C1561.51 207 1563 207.215 1563 207.5C1563 207.775 1563.68 208 1564.5 208C1565.32 208 1566 208.225 1566 208.5C1566 208.775 1566.4 209 1566.89 209C1567.38 209 1568.1 209.45 1568.5 210C1568.9 210.55 1569.52 211 1569.88 211C1570.79 211 1574 214.298 1574 215.234C1574 215.655 1574.22 216 1574.5 216C1574.78 216 1575 216.45 1575 217C1575 217.55 1575.22 218 1575.5 218C1575.78 218 1576 218.45 1576 219C1576 219.55 1576.22 220 1576.5 220C1576.78 220 1577 220.675 1577 221.5C1577 222.325 1577.22 223 1577.5 223C1577.78 223 1578 224.125 1578 225.5C1578 226.875 1578.22 228 1578.5 228C1578.78 228 1579 229.125 1579 230.5V233H1600H1621V228C1621 225 1620.8 223 1620.5 223C1620.22 223 1620 221.875 1620 220.5C1620 219.125 1619.78 218 1619.5 218C1619.22 218 1619 217.1 1619 216C1619 214.9 1618.78 214 1618.5 214C1618.22 214 1618 213.325 1618 212.5C1618 211.675 1617.78 211 1617.5 211C1617.22 211 1617 210.55 1617 210C1617 209.45 1616.78 209 1616.5 209C1616.22 209 1616 208.55 1616 208C1616 207.45 1615.78 207 1615.5 207C1615.22 207 1615 206.55 1615 206C1615 205.45 1614.78 205 1614.5 205C1614.22 205 1614 204.55 1614 204C1614 203.45 1613.78 203 1613.5 203C1613.22 203 1613 202.6 1613 202.111C1613 201.621 1612.55 200.896 1612 200.5C1611.45 200.104 1611 199.489 1611 199.135C1611 198.293 1599.71 187 1598.87 187C1598.51 187 1597.9 186.55 1597.5 186C1597.1 185.45 1596.43 185 1596 185C1595.57 185 1594.9 184.55 1594.5 184C1594.1 183.45 1593.38 183 1592.89 183C1592.4 183 1592 182.775 1592 182.5C1592 182.225 1591.55 182 1591 182C1590.45 182 1590 181.775 1590 181.5C1590 181.225 1589.55 181 1589 181C1588.45 181 1588 180.775 1588 180.5C1588 180.225 1587.32 180 1586.5 180C1585.68 180 1585 179.775 1585 179.5C1585 179.225 1584.55 179 1584 179C1583.45 179 1583 178.775 1583 178.5C1583 178.225 1582.1 178 1581 178C1579.9 178 1579 177.775 1579 177.5C1579 177.225 1578.1 177 1577 177C1575.9 177 1575 176.775 1575 176.5C1575 176.225 1573.88 176 1572.5 176C1571.12 176 1570 175.775 1570 175.5C1570 175.178 1565 175 1556 175C1547 175 1542 175.178 1542 175.5ZM1726 175.5C1726 175.778 1724.67 176 1723 176C1721.33 176 1720 176.222 1720 176.5C1720 176.775 1718.88 177 1717.5 177C1716.12 177 1715 177.225 1715 177.5C1715 177.775 1714.1 178 1713 178C1711.9 178 1711 178.225 1711 178.5C1711 178.775 1710.32 179 1709.5 179C1708.68 179 1708 179.225 1708 179.5C1708 179.775 1707.32 180 1706.5 180C1705.68 180 1705 180.225 1705 180.5C1705 180.775 1704.32 181 1703.5 181C1702.68 181 1702 181.225 1702 181.5C1702 181.775 1701.55 182 1701 182C1700.45 182 1700 182.225 1700 182.5C1700 182.775 1699.55 183 1699 183C1698.45 183 1698 183.225 1698 183.5C1698 183.775 1697.37 184 1696.61 184C1695.79 184 1694.92 184.413 1694.5 185C1694.1 185.55 1693.38 186 1692.89 186C1692.4 186 1692 186.225 1692 186.5C1692 186.775 1691.55 187 1691 187C1690.45 187 1690 187.225 1690 187.5C1690 187.775 1689.6 188 1689.11 188C1688.62 188 1687.9 188.45 1687.5 189C1687.1 189.55 1686.43 190 1686 190C1685.57 190 1684.9 190.45 1684.5 191C1684.1 191.55 1683.47 192 1683.09 192C1682.71 192 1681.77 192.675 1681 193.5C1680.23 194.325 1679.35 195 1679.05 195C1678.32 195 1664 209.322 1664 210.045C1664 210.349 1663.32 211.229 1662.5 212C1661.68 212.771 1661 213.711 1661 214.09C1661 214.469 1660.55 215.104 1660 215.5C1659.45 215.896 1659 216.621 1659 217.111C1659 217.6 1658.78 218 1658.5 218C1658.22 218 1658 218.4 1658 218.889C1658 219.379 1657.55 220.104 1657 220.5C1656.45 220.896 1656 221.621 1656 222.111C1656 222.6 1655.78 223 1655.5 223C1655.22 223 1655 223.45 1655 224C1655 224.55 1654.78 225 1654.5 225C1654.22 225 1654 225.45 1654 226C1654 226.55 1653.78 227 1653.5 227C1653.22 227 1653 227.45 1653 228C1653 228.55 1652.78 229 1652.5 229C1652.22 229 1652 229.45 1652 230C1652 230.55 1651.78 231 1651.5 231C1651.22 231 1651 231.675 1651 232.5C1651 233.325 1650.78 234 1650.5 234C1650.22 234 1650 234.675 1650 235.5C1650 236.325 1649.78 237 1649.5 237C1649.22 237 1649 237.675 1649 238.5C1649 239.325 1648.78 240 1648.5 240C1648.22 240 1648 240.675 1648 241.5C1648 242.325 1647.78 243 1647.5 243C1647.22 243 1647 243.9 1647 245C1647 246.1 1646.78 247 1646.5 247C1646.22 247 1646 247.9 1646 249C1646 250.1 1645.78 251 1645.5 251C1645.22 251 1645 252.334 1645 254C1645 255.666 1644.78 257 1644.5 257C1644.18 257 1644 262 1644 271C1644 280 1644.18 285 1644.5 285C1644.78 285 1645 286.334 1645 288C1645 289.666 1645.22 291 1645.5 291C1645.78 291 1646 291.9 1646 293C1646 294.1 1646.22 295 1646.5 295C1646.78 295 1647 295.9 1647 297C1647 298.1 1647.22 299 1647.5 299C1647.78 299 1648 299.675 1648 300.5C1648 301.325 1648.22 302 1648.5 302C1648.78 302 1649 302.675 1649 303.5C1649 304.325 1649.22 305 1649.5 305C1649.78 305 1650 305.675 1650 306.5C1650 307.325 1650.22 308 1650.5 308C1650.78 308 1651 308.45 1651 309C1651 309.55 1651.22 310 1651.5 310C1651.78 310 1652 310.675 1652 311.5C1652 312.325 1652.22 313 1652.5 313C1652.78 313 1653 313.45 1653 314C1653 314.55 1653.22 315 1653.5 315C1653.78 315 1654 315.45 1654 316C1654 316.55 1654.22 317 1654.5 317C1654.78 317 1655 317.45 1655 318C1655 318.55 1655.22 319 1655.5 319C1655.78 319 1656 319.4 1656 319.889C1656 320.379 1656.45 321.104 1657 321.5C1657.55 321.896 1658 322.621 1658 323.111C1658 323.6 1658.22 324 1658.5 324C1658.78 324 1659 324.359 1659 324.799C1659 325.239 1659.68 326.229 1660.5 327C1661.32 327.771 1662 328.671 1662 329C1662 329.329 1662.68 330.229 1663.5 331C1664.32 331.771 1665 332.65 1665 332.955C1665 333.678 1678.32 347 1679.05 347C1679.35 347 1680.23 347.675 1681 348.5C1681.77 349.325 1682.71 350 1683.09 350C1683.47 350 1684.1 350.45 1684.5 351C1684.9 351.55 1685.57 352 1686 352C1686.43 352 1687.1 352.45 1687.5 353C1687.9 353.55 1688.62 354 1689.11 354C1689.6 354 1690 354.225 1690 354.5C1690 354.775 1690.45 355 1691 355C1691.55 355 1692 355.225 1692 355.5C1692 355.775 1692.45 356 1693 356C1693.55 356 1694 356.225 1694 356.5C1694 356.775 1694.45 357 1695 357C1695.55 357 1696 357.225 1696 357.5C1696 357.775 1696.45 358 1697 358C1697.55 358 1698 358.225 1698 358.5C1698 358.775 1698.45 359 1699 359C1699.55 359 1700 359.225 1700 359.5C1700 359.775 1700.68 360 1701.5 360C1702.32 360 1703 360.225 1703 360.5C1703 360.775 1703.45 361 1704 361C1704.55 361 1705 361.225 1705 361.5C1705 361.775 1705.68 362 1706.5 362C1707.32 362 1708 362.225 1708 362.5C1708 362.775 1708.9 363 1710 363C1711.1 363 1712 363.225 1712 363.5C1712 363.775 1712.68 364 1713.5 364C1714.32 364 1715 364.225 1715 364.5C1715 364.775 1716.12 365 1717.5 365C1718.88 365 1720 365.225 1720 365.5C1720 365.778 1721.33 366 1723 366C1724.67 366 1726 366.222 1726 366.5C1726 366.822 1731.17 367 1740.5 367C1749.83 367 1755 366.822 1755 366.5C1755 366.215 1756.5 366 1758.5 366C1760.5 366 1762 365.785 1762 365.5C1762 365.225 1762.9 365 1764 365C1765.1 365 1766 364.775 1766 364.5C1766 364.225 1766.9 364 1768 364C1769.1 364 1770 363.775 1770 363.5C1770 363.225 1770.68 363 1771.5 363C1772.32 363 1773 362.775 1773 362.5C1773 362.225 1773.68 362 1774.5 362C1775.32 362 1776 361.775 1776 361.5C1776 361.225 1776.68 361 1777.5 361C1778.32 361 1779 360.775 1779 360.5C1779 360.225 1779.68 360 1780.5 360C1781.32 360 1782 359.775 1782 359.5C1782 359.225 1782.45 359 1783 359C1783.55 359 1784 358.775 1784 358.5C1784 358.225 1784.45 358 1785 358C1785.55 358 1786 357.775 1786 357.5C1786 357.225 1786.45 357 1787 357C1787.55 357 1788 356.775 1788 356.5C1788 356.225 1788.45 356 1789 356C1789.55 356 1790 355.775 1790 355.5C1790 355.225 1790.4 355 1790.89 355C1791.38 355 1792.1 354.55 1792.5 354C1792.9 353.45 1793.57 353 1794 353C1794.43 353 1795.1 352.55 1795.5 352C1795.9 351.45 1796.57 351 1797 351C1797.43 351 1798.1 350.55 1798.5 350C1798.9 349.45 1799.53 349 1799.9 349C1800.27 349 1801.44 348.1 1802.5 347C1803.56 345.9 1804.67 345 1804.97 345C1805.68 345 1814 336.683 1814 335.974C1814 335.678 1815.12 334.339 1816.5 333C1817.88 331.661 1819 330.263 1819 329.893C1819 329.523 1819.45 328.896 1820 328.5C1820.55 328.104 1821 327.428 1821 327C1821 326.572 1821.45 325.896 1822 325.5C1822.55 325.104 1823 324.379 1823 323.889C1823 323.4 1823.22 323 1823.5 323C1823.78 323 1824 322.6 1824 322.111C1824 321.621 1824.45 320.896 1825 320.5C1825.55 320.104 1826 319.379 1826 318.889C1826 318.4 1826.22 318 1826.5 318C1826.78 318 1827 317.55 1827 317C1827 316.45 1827.22 316 1827.5 316C1827.78 316 1828 315.55 1828 315C1828 314.45 1828.22 314 1828.5 314C1828.78 314 1829 313.55 1829 313C1829 312.45 1829.22 312 1829.5 312C1829.78 312 1830 311.325 1830 310.5C1830 309.675 1830.22 309 1830.5 309C1830.78 309 1831 308.55 1831 308C1831 307.45 1831.22 307 1831.5 307C1831.78 307 1832 306.325 1832 305.5C1832 304.675 1832.22 304 1832.5 304C1832.78 304 1833 303.325 1833 302.5C1833 301.675 1833.22 301 1833.5 301C1833.78 301 1834 300.1 1834 299C1834 297.9 1834.22 297 1834.5 297C1834.78 297 1835 296.1 1835 295C1835 293.9 1835.22 293 1835.5 293C1835.78 293 1836 291.875 1836 290.5C1836 289.125 1836.22 288 1836.5 288C1836.79 288 1837 286.333 1837 284C1837 281.667 1837.21 280 1837.5 280C1837.81 280 1838 276.667 1838 271C1838 265.333 1837.81 262 1837.5 262C1837.21 262 1837 260.333 1837 258C1837 255.667 1836.79 254 1836.5 254C1836.22 254 1836 252.875 1836 251.5C1836 250.125 1835.78 249 1835.5 249C1835.22 249 1835 248.1 1835 247C1835 245.9 1834.78 245 1834.5 245C1834.22 245 1834 244.1 1834 243C1834 241.9 1833.78 241 1833.5 241C1833.22 241 1833 240.325 1833 239.5C1833 238.675 1832.78 238 1832.5 238C1832.22 238 1832 237.325 1832 236.5C1832 235.675 1831.78 235 1831.5 235C1831.22 235 1831 234.55 1831 234C1831 233.45 1830.78 233 1830.5 233C1830.22 233 1830 232.325 1830 231.5C1830 230.675 1829.78 230 1829.5 230C1829.22 230 1829 229.55 1829 229C1829 228.45 1828.78 228 1828.5 228C1828.22 228 1828 227.55 1828 227C1828 226.45 1827.78 226 1827.5 226C1827.22 226 1827 225.55 1827 225C1827 224.45 1826.78 224 1826.5 224C1826.22 224 1826 223.55 1826 223C1826 222.45 1825.78 222 1825.5 222C1825.22 222 1825 221.6 1825 221.111C1825 220.621 1824.55 219.896 1824 219.5C1823.45 219.104 1823 218.428 1823 218C1823 217.572 1822.55 216.896 1822 216.5C1821.45 216.104 1821 215.428 1821 215C1821 214.572 1820.55 213.896 1820 213.5C1819.45 213.104 1819 212.474 1819 212.1C1819 211.727 1818.1 210.557 1817 209.5C1815.9 208.443 1815 207.333 1815 207.033C1815 206.321 1805.68 197 1804.97 197C1804.67 197 1803.56 196.1 1802.5 195C1801.44 193.9 1800.27 193 1799.9 193C1799.53 193 1798.9 192.55 1798.5 192C1798.1 191.45 1797.43 191 1797 191C1796.57 191 1795.9 190.55 1795.5 190C1795.1 189.45 1794.43 189 1794 189C1793.57 189 1792.9 188.55 1792.5 188C1792.1 187.45 1791.38 187 1790.89 187C1790.4 187 1790 186.775 1790 186.5C1790 186.225 1789.55 186 1789 186C1788.45 186 1788 185.775 1788 185.5C1788 185.225 1787.55 185 1787 185C1786.45 185 1786 184.775 1786 184.5C1786 184.225 1785.55 184 1785 184C1784.45 184 1784 183.775 1784 183.5C1784 183.225 1783.55 183 1783 183C1782.45 183 1782 182.775 1782 182.5C1782 182.225 1781.32 182 1780.5 182C1779.68 182 1779 181.775 1779 181.5C1779 181.225 1778.55 181 1778 181C1777.45 181 1777 180.775 1777 180.5C1777 180.225 1776.32 180 1775.5 180C1774.68 180 1774 179.775 1774 179.5C1774 179.225 1773.1 179 1772 179C1770.9 179 1770 178.775 1770 178.5C1770 178.225 1769.32 178 1768.5 178C1767.68 178 1767 177.775 1767 177.5C1767 177.225 1765.88 177 1764.5 177C1763.12 177 1762 176.775 1762 176.5C1762 176.222 1760.67 176 1759 176C1757.33 176 1756 175.778 1756 175.5C1756 175.178 1750.67 175 1741 175C1731.33 175 1726 175.178 1726 175.5ZM669 197.5V216H689.5H710V289.5V363H731H752V289.5V216H773H794V197.5V179H731.5H669V197.5ZM824 270.285C824 348.733 824.1 361.672 824.714 362.285C825.324 362.896 833.466 363 880.714 363H936V346V329H901.5H867V308.5V288H901.5H936V271.5V255H901.5H867V234V213H901.5H936V196V179H880H824V270.285ZM970 271V363H1016.79C1056.67 363 1063.68 362.894 1064.29 362.285C1064.88 361.693 1065 358.533 1065 343.785V326H1038.5H1012V252.5V179H991H970V271ZM1097 271V363H1153H1209V346V329H1174.5H1140V308.5V288H1174.5H1209V271.5V255H1174.5H1140V234V213H1174.5H1209V196V179H1153H1097V271ZM1229 181C1229 182.1 1229.22 183 1229.5 183C1229.78 183 1230 183.45 1230 184C1230 184.55 1230.22 185 1230.5 185C1230.78 185 1231 185.675 1231 186.5C1231 187.325 1231.22 188 1231.5 188C1231.78 188 1232 188.675 1232 189.5C1232 190.325 1232.22 191 1232.5 191C1232.78 191 1233 191.675 1233 192.5C1233 193.325 1233.22 194 1233.5 194C1233.78 194 1234 194.675 1234 195.5C1234 196.325 1234.22 197 1234.5 197C1234.78 197 1235 197.45 1235 198C1235 198.55 1235.22 199 1235.5 199C1235.78 199 1236 199.675 1236 200.5C1236 201.325 1236.22 202 1236.5 202C1236.78 202 1237 202.675 1237 203.5C1237 204.325 1237.22 205 1237.5 205C1237.78 205 1238 205.675 1238 206.5C1238 207.325 1238.22 208 1238.5 208C1238.78 208 1239 208.675 1239 209.5C1239 210.325 1239.22 211 1239.5 211C1239.78 211 1240 211.45 1240 212C1240 212.55 1240.22 213 1240.5 213C1240.78 213 1241 213.675 1241 214.5C1241 215.325 1241.22 216 1241.5 216C1241.78 216 1242 216.675 1242 217.5C1242 218.325 1242.22 219 1242.5 219C1242.78 219 1243 219.675 1243 220.5C1243 221.325 1243.22 222 1243.5 222C1243.78 222 1244 222.675 1244 223.5C1244 224.325 1244.22 225 1244.5 225C1244.78 225 1245 225.45 1245 226C1245 226.55 1245.22 227 1245.5 227C1245.78 227 1246 227.675 1246 228.5C1246 229.325 1246.22 230 1246.5 230C1246.78 230 1247 230.675 1247 231.5C1247 232.325 1247.22 233 1247.5 233C1247.78 233 1248 233.675 1248 234.5C1248 235.325 1248.22 236 1248.5 236C1248.78 236 1249 236.675 1249 237.5C1249 238.325 1249.22 239 1249.5 239C1249.78 239 1250 239.45 1250 240C1250 240.55 1250.22 241 1250.5 241C1250.78 241 1251 241.675 1251 242.5C1251 243.325 1251.22 244 1251.5 244C1251.78 244 1252 244.675 1252 245.5C1252 246.325 1252.22 247 1252.5 247C1252.78 247 1253 247.675 1253 248.5C1253 249.325 1253.22 250 1253.5 250C1253.78 250 1254 250.675 1254 251.5C1254 252.325 1254.22 253 1254.5 253C1254.78 253 1255 253.45 1255 254C1255 254.55 1255.22 255 1255.5 255C1255.78 255 1256 255.675 1256 256.5C1256 257.325 1256.22 258 1256.5 258C1256.78 258 1257 258.675 1257 259.5C1257 260.325 1257.22 261 1257.5 261C1257.78 261 1258 261.675 1258 262.5C1258 263.325 1258.22 264 1258.5 264C1258.78 264 1259 264.675 1259 265.5C1259 266.325 1259.22 267 1259.5 267C1259.78 267 1260 267.45 1260 268C1260 268.55 1260.22 269 1260.5 269C1260.78 269 1261 269.675 1261 270.5C1261 271.325 1261.22 272 1261.5 272C1261.78 272 1262 272.675 1262 273.5C1262 274.325 1262.22 275 1262.5 275C1262.78 275 1263 275.675 1263 276.5C1263 277.325 1263.22 278 1263.5 278C1263.78 278 1264 278.675 1264 279.5C1264 280.325 1264.22 281 1264.5 281C1264.78 281 1265 281.45 1265 282C1265 282.55 1265.22 283 1265.5 283C1265.78 283 1266 283.675 1266 284.5C1266 285.325 1266.22 286 1266.5 286C1266.78 286 1267 286.675 1267 287.5C1267 288.325 1267.22 289 1267.5 289C1267.78 289 1268 289.675 1268 290.5C1268 291.325 1268.22 292 1268.5 292C1268.78 292 1269 292.675 1269 293.5C1269 294.325 1269.22 295 1269.5 295C1269.78 295 1270 295.45 1270 296C1270 296.55 1270.22 297 1270.5 297C1270.78 297 1271 297.675 1271 298.5C1271 299.325 1271.22 300 1271.5 300C1271.78 300 1272 300.675 1272 301.5C1272 302.325 1272.22 303 1272.5 303C1272.78 303 1273 303.675 1273 304.5C1273 305.325 1273.22 306 1273.5 306C1273.78 306 1274 306.675 1274 307.5C1274 308.325 1274.22 309 1274.5 309C1274.78 309 1275 309.45 1275 310C1275 310.55 1275.22 311 1275.5 311C1275.78 311 1276 311.675 1276 312.5C1276 313.325 1276.22 314 1276.5 314C1276.78 314 1277 314.675 1277 315.5C1277 316.325 1277.22 317 1277.5 317C1277.78 317 1278 317.675 1278 318.5C1278 319.325 1278.22 320 1278.5 320C1278.78 320 1279 320.675 1279 321.5C1279 322.325 1279.22 323 1279.5 323C1279.78 323 1280 323.45 1280 324C1280 324.55 1280.22 325 1280.5 325C1280.78 325 1281 325.675 1281 326.5C1281 327.325 1281.22 328 1281.5 328C1281.78 328 1282 328.675 1282 329.5C1282 330.325 1282.22 331 1282.5 331C1282.78 331 1283 331.675 1283 332.5C1283 333.325 1283.22 334 1283.5 334C1283.78 334 1284 334.675 1284 335.5C1284 336.325 1284.22 337 1284.5 337C1284.78 337 1285 337.45 1285 338C1285 338.55 1285.22 339 1285.5 339C1285.78 339 1286 339.675 1286 340.5C1286 341.325 1286.22 342 1286.5 342C1286.78 342 1287 342.675 1287 343.5C1287 344.325 1287.22 345 1287.5 345C1287.78 345 1288 345.675 1288 346.5C1288 347.325 1288.22 348 1288.5 348C1288.78 348 1289 348.45 1289 349C1289 349.55 1289.22 350 1289.5 350C1289.78 350 1290 350.675 1290 351.5C1290 352.325 1290.22 353 1290.5 353C1290.78 353 1291 353.675 1291 354.5C1291 355.325 1291.22 356 1291.5 356C1291.78 356 1292 356.675 1292 357.5C1292 358.325 1292.22 359 1292.5 359C1292.78 359 1293 359.578 1293 360.285C1293 363.024 1292.81 363 1313.71 363C1332.67 363 1333 362.983 1333 362C1333 361.45 1333.22 361 1333.5 361C1333.78 361 1334 360.55 1334 360C1334 359.45 1334.22 359 1334.5 359C1334.78 359 1335 358.325 1335 357.5C1335 356.675 1335.22 356 1335.5 356C1335.78 356 1336 355.325 1336 354.5C1336 353.675 1336.22 353 1336.5 353C1336.78 353 1337 352.325 1337 351.5C1337 350.675 1337.22 350 1337.5 350C1337.78 350 1338 349.325 1338 348.5C1338 347.675 1338.22 347 1338.5 347C1338.78 347 1339 346.55 1339 346C1339 345.45 1339.22 345 1339.5 345C1339.78 345 1340 344.325 1340 343.5C1340 342.675 1340.22 342 1340.5 342C1340.78 342 1341 341.325 1341 340.5C1341 339.675 1341.22 339 1341.5 339C1341.78 339 1342 338.325 1342 337.5C1342 336.675 1342.22 336 1342.5 336C1342.78 336 1343 335.55 1343 335C1343 334.45 1343.22 334 1343.5 334C1343.78 334 1344 333.325 1344 332.5C1344 331.675 1344.22 331 1344.5 331C1344.78 331 1345 330.325 1345 329.5C1345 328.675 1345.22 328 1345.5 328C1345.78 328 1346 327.325 1346 326.5C1346 325.675 1346.22 325 1346.5 325C1346.78 325 1347 324.55 1347 324C1347 323.45 1347.22 323 1347.5 323C1347.78 323 1348 322.325 1348 321.5C1348 320.675 1348.22 320 1348.5 320C1348.78 320 1349 319.325 1349 318.5C1349 317.675 1349.22 317 1349.5 317C1349.78 317 1350 316.325 1350 315.5C1350 314.675 1350.22 314 1350.5 314C1350.78 314 1351 313.325 1351 312.5C1351 311.675 1351.22 311 1351.5 311C1351.78 311 1352 310.55 1352 310C1352 309.45 1352.22 309 1352.5 309C1352.78 309 1353 308.325 1353 307.5C1353 306.675 1353.22 306 1353.5 306C1353.78 306 1354 305.325 1354 304.5C1354 303.675 1354.22 303 1354.5 303C1354.78 303 1355 302.325 1355 301.5C1355 300.675 1355.22 300 1355.5 300C1355.78 300 1356 299.55 1356 299C1356 298.45 1356.22 298 1356.5 298C1356.78 298 1357 297.325 1357 296.5C1357 295.675 1357.22 295 1357.5 295C1357.78 295 1358 294.325 1358 293.5C1358 292.675 1358.22 292 1358.5 292C1358.78 292 1359 291.325 1359 290.5C1359 289.675 1359.22 289 1359.5 289C1359.78 289 1360 288.55 1360 288C1360 287.45 1360.22 287 1360.5 287C1360.78 287 1361 286.325 1361 285.5C1361 284.675 1361.22 284 1361.5 284C1361.78 284 1362 283.325 1362 282.5C1362 281.675 1362.22 281 1362.5 281C1362.78 281 1363 280.325 1363 279.5C1363 278.675 1363.22 278 1363.5 278C1363.78 278 1364 277.55 1364 277C1364 276.45 1364.22 276 1364.5 276C1364.78 276 1365 275.325 1365 274.5C1365 273.675 1365.22 273 1365.5 273C1365.78 273 1366 272.325 1366 271.5C1366 270.675 1366.22 270 1366.5 270C1366.78 270 1367 269.325 1367 268.5C1367 267.675 1367.22 267 1367.5 267C1367.78 267 1368 266.325 1368 265.5C1368 264.675 1368.22 264 1368.5 264C1368.78 264 1369 263.55 1369 263C1369 262.45 1369.22 262 1369.5 262C1369.78 262 1370 261.325 1370 260.5C1370 259.675 1370.22 259 1370.5 259C1370.78 259 1371 258.325 1371 257.5C1371 256.675 1371.22 256 1371.5 256C1371.78 256 1372 255.325 1372 254.5C1372 253.675 1372.22 253 1372.5 253C1372.78 253 1373 252.55 1373 252C1373 251.45 1373.22 251 1373.5 251C1373.78 251 1374 250.325 1374 249.5C1374 248.675 1374.22 248 1374.5 248C1374.78 248 1375 247.325 1375 246.5C1375 245.675 1375.22 245 1375.5 245C1375.78 245 1376 244.325 1376 243.5C1376 242.675 1376.22 242 1376.5 242C1376.78 242 1377 241.55 1377 241C1377 240.45 1377.22 240 1377.5 240C1377.78 240 1378 239.325 1378 238.5C1378 237.675 1378.22 237 1378.5 237C1378.78 237 1379 236.325 1379 235.5C1379 234.675 1379.22 234 1379.5 234C1379.78 234 1380 233.325 1380 232.5C1380 231.675 1380.22 231 1380.5 231C1380.78 231 1381 230.55 1381 230C1381 229.45 1381.22 229 1381.5 229C1381.78 229 1382 228.325 1382 227.5C1382 226.675 1382.22 226 1382.5 226C1382.78 226 1383 225.325 1383 224.5C1383 223.675 1383.22 223 1383.5 223C1383.78 223 1384 222.325 1384 221.5C1384 220.675 1384.22 220 1384.5 220C1384.78 220 1385 219.325 1385 218.5C1385 217.675 1385.22 217 1385.5 217C1385.78 217 1386 216.55 1386 216C1386 215.45 1386.22 215 1386.5 215C1386.78 215 1387 214.325 1387 213.5C1387 212.675 1387.22 212 1387.5 212C1387.78 212 1388 211.325 1388 210.5C1388 209.675 1388.22 209 1388.5 209C1388.78 209 1389 208.325 1389 207.5C1389 206.675 1389.22 206 1389.5 206C1389.78 206 1390 205.55 1390 205C1390 204.45 1390.22 204 1390.5 204C1390.78 204 1391 203.325 1391 202.5C1391 201.675 1391.22 201 1391.5 201C1391.78 201 1392 200.325 1392 199.5C1392 198.675 1392.22 198 1392.5 198C1392.78 198 1393 197.325 1393 196.5C1393 195.675 1393.22 195 1393.5 195C1393.78 195 1394 194.55 1394 194C1394 193.45 1394.22 193 1394.5 193C1394.78 193 1395 192.325 1395 191.5C1395 190.675 1395.22 190 1395.5 190C1395.78 190 1396 189.325 1396 188.5C1396 187.675 1396.22 187 1396.5 187C1396.78 187 1397 186.325 1397 185.5C1397 184.675 1397.22 184 1397.5 184C1397.78 184 1398 183.325 1398 182.5C1398 181.675 1398.22 181 1398.5 181C1398.78 181 1399 180.55 1399 180C1399 179.015 1398.67 179 1376 179C1353.33 179 1353 179.015 1353 180C1353 180.55 1352.78 181 1352.5 181C1352.22 181 1352 181.675 1352 182.5C1352 183.325 1351.78 184 1351.5 184C1351.22 184 1351 184.9 1351 186C1351 187.1 1350.78 188 1350.5 188C1350.22 188 1350 188.675 1350 189.5C1350 190.325 1349.78 191 1349.5 191C1349.22 191 1349 191.675 1349 192.5C1349 193.325 1348.78 194 1348.5 194C1348.22 194 1348 194.9 1348 196C1348 197.1 1347.78 198 1347.5 198C1347.22 198 1347 198.675 1347 199.5C1347 200.325 1346.78 201 1346.5 201C1346.22 201 1346 201.675 1346 202.5C1346 203.325 1345.78 204 1345.5 204C1345.22 204 1345 204.675 1345 205.5C1345 206.325 1344.78 207 1344.5 207C1344.22 207 1344 207.9 1344 209C1344 210.1 1343.78 211 1343.5 211C1343.22 211 1343 211.675 1343 212.5C1343 213.325 1342.78 214 1342.5 214C1342.22 214 1342 214.675 1342 215.5C1342 216.325 1341.78 217 1341.5 217C1341.22 217 1341 217.675 1341 218.5C1341 219.325 1340.78 220 1340.5 220C1340.22 220 1340 220.9 1340 222C1340 223.1 1339.78 224 1339.5 224C1339.22 224 1339 224.675 1339 225.5C1339 226.325 1338.78 227 1338.5 227C1338.22 227 1338 227.675 1338 228.5C1338 229.325 1337.78 230 1337.5 230C1337.22 230 1337 230.9 1337 232C1337 233.1 1336.78 234 1336.5 234C1336.22 234 1336 234.675 1336 235.5C1336 236.325 1335.78 237 1335.5 237C1335.22 237 1335 237.675 1335 238.5C1335 239.325 1334.78 240 1334.5 240C1334.22 240 1334 240.675 1334 241.5C1334 242.325 1333.78 243 1333.5 243C1333.22 243 1333 243.9 1333 245C1333 246.1 1332.78 247 1332.5 247C1332.22 247 1332 247.675 1332 248.5C1332 249.325 1331.78 250 1331.5 250C1331.22 250 1331 250.675 1331 251.5C1331 252.325 1330.78 253 1330.5 253C1330.22 253 1330 253.675 1330 254.5C1330 255.325 1329.78 256 1329.5 256C1329.22 256 1329 256.9 1329 258C1329 259.1 1328.78 260 1328.5 260C1328.22 260 1328 260.675 1328 261.5C1328 262.325 1327.78 263 1327.5 263C1327.22 263 1327 263.675 1327 264.5C1327 265.325 1326.78 266 1326.5 266C1326.22 266 1326 266.9 1326 268C1326 269.1 1325.78 270 1325.5 270C1325.22 270 1325 270.675 1325 271.5C1325 272.325 1324.78 273 1324.5 273C1324.22 273 1324 273.675 1324 274.5C1324 275.325 1323.78 276 1323.5 276C1323.22 276 1323 276.675 1323 277.5C1323 278.325 1322.78 279 1322.5 279C1322.22 279 1322 279.9 1322 281C1322 282.1 1321.78 283 1321.5 283C1321.22 283 1321 283.675 1321 284.5C1321 285.325 1320.78 286 1320.5 286C1320.22 286 1320 286.675 1320 287.5C1320 288.325 1319.78 289 1319.5 289C1319.22 289 1319 289.675 1319 290.5C1319 291.325 1318.78 292 1318.5 292C1318.22 292 1318 292.9 1318 294C1318 295.1 1317.78 296 1317.5 296C1317.22 296 1317 296.675 1317 297.5C1317 298.325 1316.78 299 1316.5 299C1316.22 299 1316 299.675 1316 300.5C1316 301.325 1315.78 302 1315.5 302C1315.22 302 1315 302.675 1315 303.5C1315 304.325 1314.78 305 1314.5 305C1314.22 305 1314 305.675 1314 306.5C1314 307.325 1313.78 308 1313.5 308C1313.22 308 1313 307.325 1313 306.5C1313 305.675 1312.78 305 1312.5 305C1312.22 305 1312 304.325 1312 303.5C1312 302.675 1311.78 302 1311.5 302C1311.22 302 1311 301.325 1311 300.5C1311 299.675 1310.78 299 1310.5 299C1310.22 299 1310 298.1 1310 297C1310 295.9 1309.78 295 1309.5 295C1309.22 295 1309 294.325 1309 293.5C1309 292.675 1308.78 292 1308.5 292C1308.22 292 1308 291.325 1308 290.5C1308 289.675 1307.78 289 1307.5 289C1307.22 289 1307 288.325 1307 287.5C1307 286.675 1306.78 286 1306.5 286C1306.22 286 1306 285.1 1306 284C1306 282.9 1305.78 282 1305.5 282C1305.22 282 1305 281.325 1305 280.5C1305 279.675 1304.78 279 1304.5 279C1304.22 279 1304 278.325 1304 277.5C1304 276.675 1303.78 276 1303.5 276C1303.22 276 1303 275.325 1303 274.5C1303 273.675 1302.78 273 1302.5 273C1302.22 273 1302 272.1 1302 271C1302 269.9 1301.78 269 1301.5 269C1301.22 269 1301 268.325 1301 267.5C1301 266.675 1300.78 266 1300.5 266C1300.22 266 1300 265.325 1300 264.5C1300 263.675 1299.78 263 1299.5 263C1299.22 263 1299 262.325 1299 261.5C1299 260.675 1298.78 260 1298.5 260C1298.22 260 1298 259.1 1298 258C1298 256.9 1297.78 256 1297.5 256C1297.22 256 1297 255.325 1297 254.5C1297 253.675 1296.78 253 1296.5 253C1296.22 253 1296 252.325 1296 251.5C1296 250.675 1295.78 250 1295.5 250C1295.22 250 1295 249.325 1295 248.5C1295 247.675 1294.78 247 1294.5 247C1294.22 247 1294 246.1 1294 245C1294 243.9 1293.78 243 1293.5 243C1293.22 243 1293 242.325 1293 241.5C1293 240.675 1292.78 240 1292.5 240C1292.22 240 1292 239.325 1292 238.5C1292 237.675 1291.78 237 1291.5 237C1291.22 237 1291 236.325 1291 235.5C1291 234.675 1290.78 234 1290.5 234C1290.22 234 1290 233.1 1290 232C1290 230.9 1289.78 230 1289.5 230C1289.22 230 1289 229.325 1289 228.5C1289 227.675 1288.78 227 1288.5 227C1288.22 227 1288 226.325 1288 225.5C1288 224.675 1287.78 224 1287.5 224C1287.22 224 1287 223.325 1287 222.5C1287 221.675 1286.78 221 1286.5 221C1286.22 221 1286 220.1 1286 219C1286 217.9 1285.78 217 1285.5 217C1285.22 217 1285 216.325 1285 215.5C1285 214.675 1284.78 214 1284.5 214C1284.22 214 1284 213.325 1284 212.5C1284 211.675 1283.78 211 1283.5 211C1283.22 211 1283 210.325 1283 209.5C1283 208.675 1282.78 208 1282.5 208C1282.22 208 1282 207.1 1282 206C1282 204.9 1281.78 204 1281.5 204C1281.22 204 1281 203.325 1281 202.5C1281 201.675 1280.78 201 1280.5 201C1280.22 201 1280 200.325 1280 199.5C1280 198.675 1279.78 198 1279.5 198C1279.22 198 1279 197.325 1279 196.5C1279 195.675 1278.78 195 1278.5 195C1278.22 195 1278 194.1 1278 193C1278 191.9 1277.78 191 1277.5 191C1277.22 191 1277 190.325 1277 189.5C1277 188.675 1276.78 188 1276.5 188C1276.22 188 1276 187.325 1276 186.5C1276 185.675 1275.78 185 1275.5 185C1275.22 185 1275 184.325 1275 183.5C1275 182.675 1274.78 182 1274.5 182C1274.22 182 1274 181.325 1274 180.5V179H1251.5H1229V181ZM1416 271V363H1437.5H1459V271V179H1437.5H1416V271ZM1864 271V363H1885H1906V337.5V312H1916.5C1926.23 312 1927 312.065 1927 312.889C1927 313.379 1927.45 314.104 1928 314.5C1928.55 314.896 1929 315.621 1929 316.111C1929 316.6 1929.22 317 1929.5 317C1929.78 317 1930 317.4 1930 317.889C1930 318.379 1930.45 319.104 1931 319.5C1931.55 319.896 1932 320.572 1932 321C1932 321.428 1932.45 322.104 1933 322.5C1933.55 322.896 1934 323.572 1934 324C1934 324.428 1934.45 325.104 1935 325.5C1935.55 325.896 1936 326.621 1936 327.111C1936 327.6 1936.22 328 1936.5 328C1936.78 328 1937 328.4 1937 328.889C1937 329.379 1937.45 330.104 1938 330.5C1938.55 330.896 1939 331.572 1939 332C1939 332.428 1939.45 333.104 1940 333.5C1940.55 333.896 1941 334.572 1941 335C1941 335.428 1941.45 336.104 1942 336.5C1942.55 336.896 1943 337.572 1943 338C1943 338.428 1943.45 339.104 1944 339.5C1944.55 339.896 1945 340.621 1945 341.111C1945 341.6 1945.22 342 1945.5 342C1945.78 342 1946 342.4 1946 342.889C1946 343.379 1946.45 344.104 1947 344.5C1947.55 344.896 1948 345.572 1948 346C1948 346.428 1948.45 347.104 1949 347.5C1949.55 347.896 1950 348.572 1950 349C1950 349.428 1950.45 350.104 1951 350.5C1951.55 350.896 1952 351.621 1952 352.111C1952 352.6 1952.22 353 1952.5 353C1952.78 353 1953 353.4 1953 353.889C1953 354.379 1953.45 355.104 1954 355.5C1954.55 355.896 1955 356.572 1955 357C1955 357.428 1955.45 358.104 1956 358.5C1956.55 358.896 1957 359.519 1957 359.883C1957 360.247 1957.55 361.097 1958.23 361.772L1959.45 363H1983.73C1999.58 363 2008 362.826 2008 362.5C2008 362.225 2007.78 362 2007.5 362C2007.22 362 2007 361.6 2007 361.111C2007 360.621 2006.55 359.896 2006 359.5C2005.45 359.104 2005 358.428 2005 358C2005 357.572 2004.55 356.896 2004 356.5C2003.45 356.104 2003 355.379 2003 354.889C2003 354.4 2002.78 354 2002.5 354C2002.22 354 2002 353.6 2002 353.111C2002 352.621 2001.55 351.896 2001 351.5C2000.45 351.104 2000 350.428 2000 350C2000 349.572 1999.55 348.896 1999 348.5C1998.45 348.104 1998 347.379 1998 346.889C1998 346.4 1997.78 346 1997.5 346C1997.22 346 1997 345.6 1997 345.111C1997 344.621 1996.55 343.896 1996 343.5C1995.45 343.104 1995 342.428 1995 342C1995 341.572 1994.55 340.896 1994 340.5C1993.45 340.104 1993 339.428 1993 339C1993 338.572 1992.55 337.896 1992 337.5C1991.45 337.104 1991 336.379 1991 335.889C1991 335.4 1990.78 335 1990.5 335C1990.22 335 1990 334.6 1990 334.111C1990 333.621 1989.55 332.896 1989 332.5C1988.45 332.104 1988 331.428 1988 331C1988 330.572 1987.55 329.896 1987 329.5C1986.45 329.104 1986 328.379 1986 327.889C1986 327.4 1985.8 327 1985.56 327C1985.32 327 1984.84 326.325 1984.5 325.5C1984.16 324.675 1983.68 324 1983.44 324C1983.2 324 1983 323.6 1983 323.111C1983 322.621 1982.55 321.896 1982 321.5C1981.45 321.104 1981 320.428 1981 320C1981 319.572 1980.55 318.896 1980 318.5C1979.45 318.104 1979 317.379 1979 316.889C1979 316.4 1978.78 316 1978.5 316C1978.22 316 1978 315.6 1978 315.111C1978 314.621 1977.55 313.896 1977 313.5C1976.45 313.104 1976 312.428 1976 312C1976 311.572 1975.55 310.896 1975 310.5C1974.45 310.104 1974 309.428 1974 309C1974 308.572 1973.55 307.896 1973 307.5C1972.41 307.076 1972 306.205 1972 305.389C1972 304.333 1972.24 304 1973 304C1973.55 304 1974 303.775 1974 303.5C1974 303.225 1974.4 303 1974.89 303C1975.38 303 1976.1 302.55 1976.5 302C1976.9 301.45 1977.57 301 1978 301C1978.43 301 1979.1 300.55 1979.5 300C1979.9 299.45 1980.53 299 1980.91 299C1981.29 299 1982.23 298.325 1983 297.5C1983.77 296.675 1984.65 296 1984.96 296C1985.69 296 1993 288.686 1993 287.958C1993 287.652 1993.68 286.771 1994.5 286C1995.32 285.229 1996 284.289 1996 283.91C1996 283.531 1996.45 282.896 1997 282.5C1997.55 282.104 1998 281.379 1998 280.889C1998 280.4 1998.22 280 1998.5 280C1998.78 280 1999 279.55 1999 279C1999 278.45 1999.22 278 1999.5 278C1999.78 278 2000 277.55 2000 277C2000 276.45 2000.22 276 2000.5 276C2000.78 276 2001 275.55 2001 275C2001 274.45 2001.22 274 2001.5 274C2001.78 274 2002 273.55 2002 273C2002 272.45 2002.22 272 2002.5 272C2002.78 272 2003 271.55 2003 271C2003 270.45 2003.22 270 2003.5 270C2003.78 270 2004 269.325 2004 268.5C2004 267.675 2004.22 267 2004.5 267C2004.78 267 2005 266.1 2005 265C2005 263.9 2005.22 263 2005.5 263C2005.78 263 2006 262.1 2006 261C2006 259.9 2006.22 259 2006.5 259C2006.79 259 2007 257.333 2007 255C2007 252.514 2007.2 251 2007.53 251C2007.89 251 2007.97 249.172 2007.8 245.375C2007.36 236.144 2006.95 232 2006.46 232C2006.21 232 2006 231.1 2006 230C2006 228.9 2005.78 228 2005.5 228C2005.22 228 2005 227.1 2005 226C2005 224.9 2004.78 224 2004.5 224C2004.22 224 2004 223.325 2004 222.5C2004 221.675 2003.78 221 2003.5 221C2003.22 221 2003 220.55 2003 220C2003 219.45 2002.78 219 2002.5 219C2002.22 219 2002 218.55 2002 218C2002 217.45 2001.78 217 2001.5 217C2001.22 217 2001 216.375 2001 215.611C2001 214.795 2000.59 213.924 2000 213.5C1999.45 213.104 1999 212.379 1999 211.889C1999 211.4 1998.78 211 1998.5 211C1998.22 211 1998 210.6 1998 210.111C1998 209.621 1997.55 208.896 1997 208.5C1996.45 208.104 1996 207.428 1996 207C1996 206.572 1995.55 205.896 1995 205.5C1994.45 205.104 1994 204.489 1994 204.134C1994 203.292 1983.71 193 1982.87 193C1982.51 193 1981.9 192.55 1981.5 192C1981.1 191.45 1980.43 191 1980 191C1979.57 191 1978.9 190.55 1978.5 190C1978.1 189.45 1977.43 189 1977 189C1976.57 189 1975.9 188.55 1975.5 188C1975.1 187.45 1974.38 187 1973.89 187C1973.4 187 1973 186.775 1973 186.5C1973 186.225 1972.55 186 1972 186C1971.45 186 1971 185.775 1971 185.5C1971 185.225 1970.32 185 1969.5 185C1968.68 185 1968 184.775 1968 184.5C1968 184.225 1967.55 184 1967 184C1966.45 184 1966 183.775 1966 183.5C1966 183.225 1965.32 183 1964.5 183C1963.68 183 1963 182.775 1963 182.5C1963 182.225 1962.1 182 1961 182C1959.9 182 1959 181.775 1959 181.5C1959 181.225 1958.1 181 1957 181C1955.9 181 1955 180.775 1955 180.5C1955 180.215 1953.5 180 1951.5 180C1949.5 180 1948 179.785 1948 179.5C1948 179.171 1933.67 179 1906 179H1864V271ZM428.875 316.543L316.499 429.003L271.501 384.001C246.753 359.25 226.278 339 226.002 339C225.509 339 23 541.258 23 541.75C23 541.888 33.013 542 45.251 542H67.5025L146.501 462.999L225.499 383.998L259.25 417.748C277.812 436.31 293 451.725 293 452.001C293 452.278 272.975 472.528 248.5 497C224.025 521.472 204 541.609 204 541.748C204 541.886 214.012 542 226.25 542H248.501L395.25 395.25L542 248.501V226.25C542 214.012 541.831 204.019 541.625 204.042C541.419 204.064 490.681 254.69 428.875 316.543ZM1750 213.5C1750 213.775 1751.12 214 1752.5 214C1753.88 214 1755 214.225 1755 214.5C1755 214.775 1755.68 215 1756.5 215C1757.32 215 1758 215.225 1758 215.5C1758 215.775 1758.68 216 1759.5 216C1760.32 216 1761 216.225 1761 216.5C1761 216.775 1761.45 217 1762 217C1762.55 217 1763 217.225 1763 217.5C1763 217.775 1763.45 218 1764 218C1764.55 218 1765 218.225 1765 218.5C1765 218.775 1765.45 219 1766 219C1766.55 219 1767 219.225 1767 219.5C1767 219.775 1767.36 220 1767.8 220C1768.24 220 1769.23 220.675 1770 221.5C1770.77 222.325 1771.65 223 1771.96 223C1772.74 223 1783 233.348 1783 234.134C1783 234.489 1783.45 235.104 1784 235.5C1784.55 235.896 1785 236.621 1785 237.111C1785 237.6 1785.22 238 1785.5 238C1785.78 238 1786 238.4 1786 238.889C1786 239.379 1786.45 240.104 1787 240.5C1787.55 240.896 1788 241.621 1788 242.111C1788 242.6 1788.22 243 1788.5 243C1788.78 243 1789 243.675 1789 244.5C1789 245.325 1789.22 246 1789.5 246C1789.78 246 1790 246.45 1790 247C1790 247.55 1790.22 248 1790.5 248C1790.78 248 1791 248.675 1791 249.5C1791 250.325 1791.22 251 1791.5 251C1791.78 251 1792 251.675 1792 252.5C1792 253.325 1792.22 254 1792.5 254C1792.78 254 1793 255.125 1793 256.5C1793 257.875 1793.22 259 1793.5 259C1793.79 259 1794 260.667 1794 263C1794 265.333 1794.21 267 1794.5 267C1794.79 267 1795 268.667 1795 271C1795 273.333 1794.79 275 1794.5 275C1794.21 275 1794 276.667 1794 279C1794 281.333 1793.79 283 1793.5 283C1793.22 283 1793 283.9 1793 285C1793 286.1 1792.78 287 1792.5 287C1792.22 287 1792 287.9 1792 289C1792 290.1 1791.78 291 1791.5 291C1791.22 291 1791 291.675 1791 292.5C1791 293.325 1790.78 294 1790.5 294C1790.22 294 1790 294.45 1790 295C1790 295.55 1789.78 296 1789.5 296C1789.22 296 1789 296.675 1789 297.5C1789 298.325 1788.78 299 1788.5 299C1788.22 299 1788 299.4 1788 299.889C1788 300.379 1787.55 301.104 1787 301.5C1786.45 301.896 1786 302.621 1786 303.111C1786 303.6 1785.78 304 1785.5 304C1785.22 304 1785 304.359 1785 304.799C1785 305.239 1784.32 306.229 1783.5 307C1782.68 307.771 1782 308.652 1782 308.957C1782 309.738 1772.65 319 1771.87 319C1771.51 319 1770.9 319.45 1770.5 320C1770.1 320.55 1769.43 321 1769 321C1768.57 321 1767.9 321.45 1767.5 322C1767.1 322.55 1766.38 323 1765.89 323C1765.4 323 1765 323.225 1765 323.5C1765 323.775 1764.55 324 1764 324C1763.45 324 1763 324.225 1763 324.5C1763 324.775 1762.32 325 1761.5 325C1760.68 325 1760 325.225 1760 325.5C1760 325.775 1759.55 326 1759 326C1758.45 326 1758 326.225 1758 326.5C1758 326.775 1757.1 327 1756 327C1754.9 327 1754 327.225 1754 327.5C1754 327.775 1752.88 328 1751.5 328C1750.12 328 1749 328.225 1749 328.5C1749 328.813 1745.83 329 1740.5 329C1735.17 329 1732 328.813 1732 328.5C1732 328.225 1730.88 328 1729.5 328C1728.12 328 1727 327.775 1727 327.5C1727 327.225 1726.32 327 1725.5 327C1724.68 327 1724 326.775 1724 326.5C1724 326.225 1723.32 326 1722.5 326C1721.68 326 1721 325.775 1721 325.5C1721 325.225 1720.55 325 1720 325C1719.45 325 1719 324.775 1719 324.5C1719 324.225 1718.55 324 1718 324C1717.45 324 1717 323.775 1717 323.5C1717 323.225 1716.55 323 1716 323C1715.45 323 1715 322.775 1715 322.5C1715 322.225 1714.6 322 1714.11 322C1713.62 322 1712.9 321.55 1712.5 321C1712.1 320.45 1711.47 320 1711.1 320C1710.73 320 1709.56 319.1 1708.5 318C1707.44 316.9 1706.33 316 1706.02 316C1705.3 316 1702 312.701 1702 311.978C1702 311.672 1701.1 310.557 1700 309.5C1698.9 308.443 1698 307.273 1698 306.9C1698 306.526 1697.55 305.896 1697 305.5C1696.45 305.104 1696 304.379 1696 303.889C1696 303.4 1695.78 303 1695.5 303C1695.22 303 1695 302.55 1695 302C1695 301.45 1694.78 301 1694.5 301C1694.22 301 1694 300.55 1694 300C1694 299.45 1693.78 299 1693.5 299C1693.22 299 1693 298.55 1693 298C1693 297.45 1692.78 297 1692.5 297C1692.22 297 1692 296.55 1692 296C1692 295.45 1691.78 295 1691.5 295C1691.22 295 1691 294.325 1691 293.5C1691 292.675 1690.78 292 1690.5 292C1690.22 292 1690 291.1 1690 290C1690 288.9 1689.78 288 1689.5 288C1689.22 288 1689 287.1 1689 286C1689 284.9 1688.78 284 1688.5 284C1688.22 284 1688 282.666 1688 281C1688 279.334 1687.78 278 1687.5 278C1687.19 278 1687 275.333 1687 271C1687 266.667 1687.19 264 1687.5 264C1687.78 264 1688 262.666 1688 261C1688 259.334 1688.22 258 1688.5 258C1688.78 258 1689 256.875 1689 255.5C1689 254.125 1689.22 253 1689.5 253C1689.78 253 1690 252.325 1690 251.5C1690 250.675 1690.22 250 1690.5 250C1690.78 250 1691 249.325 1691 248.5C1691 247.675 1691.22 247 1691.5 247C1691.78 247 1692 246.55 1692 246C1692 245.45 1692.22 245 1692.5 245C1692.78 245 1693 244.55 1693 244C1693 243.45 1693.22 243 1693.5 243C1693.78 243 1694 242.55 1694 242C1694 241.45 1694.22 241 1694.5 241C1694.78 241 1695 240.55 1695 240C1695 239.45 1695.22 239 1695.5 239C1695.78 239 1696 238.6 1696 238.111C1696 237.621 1696.45 236.896 1697 236.5C1697.55 236.104 1698 235.474 1698 235.1C1698 234.727 1698.9 233.557 1700 232.5C1701.1 231.443 1702 230.33 1702 230.026C1702 229.301 1706.31 225 1707.04 225C1707.35 225 1708.23 224.325 1709 223.5C1709.77 222.675 1710.71 222 1711.09 222C1711.47 222 1712.1 221.55 1712.5 221C1712.9 220.45 1713.62 220 1714.11 220C1714.6 220 1715 219.775 1715 219.5C1715 219.225 1715.45 219 1716 219C1716.55 219 1717 218.775 1717 218.5C1717 218.225 1717.45 218 1718 218C1718.55 218 1719 217.775 1719 217.5C1719 217.225 1719.45 217 1720 217C1720.55 217 1721 216.775 1721 216.5C1721 216.225 1721.68 216 1722.5 216C1723.32 216 1724 215.775 1724 215.5C1724 215.225 1724.68 215 1725.5 215C1726.32 215 1727 214.775 1727 214.5C1727 214.225 1728.12 214 1729.5 214C1730.88 214 1732 213.775 1732 213.5C1732 213.185 1735.33 213 1741 213C1746.67 213 1750 213.185 1750 213.5ZM1942 214.5C1942 214.775 1942.68 215 1943.5 215C1944.32 215 1945 215.225 1945 215.5C1945 215.775 1945.68 216 1946.5 216C1947.32 216 1948 216.225 1948 216.5C1948 216.775 1948.4 217 1948.89 217C1949.38 217 1950.1 217.45 1950.5 218C1950.9 218.55 1951.51 219 1951.87 219C1952.72 219 1958 224.281 1958 225.129C1958 225.486 1958.45 226.104 1959 226.5C1959.55 226.896 1960 227.621 1960 228.111C1960 228.6 1960.22 229 1960.5 229C1960.78 229 1961 229.45 1961 230C1961 230.55 1961.22 231 1961.5 231C1961.78 231 1962 231.45 1962 232C1962 232.55 1962.22 233 1962.5 233C1962.78 233 1963 233.675 1963 234.5C1963 235.325 1963.22 236 1963.5 236C1963.78 236 1964 237.125 1964 238.5C1964 239.875 1964.22 241 1964.5 241C1964.8 241 1965 242.833 1965 245.5C1965 248.167 1964.8 250 1964.5 250C1964.22 250 1964 251.125 1964 252.5C1964 253.875 1963.78 255 1963.5 255C1963.22 255 1963 255.675 1963 256.5C1963 257.325 1962.78 258 1962.5 258C1962.22 258 1962 258.45 1962 259C1962 259.55 1961.78 260 1961.5 260C1961.22 260 1961 260.45 1961 261C1961 261.55 1960.78 262 1960.5 262C1960.22 262 1960 262.45 1960 263C1960 263.55 1959.78 264 1959.5 264C1959.22 264 1959 264.341 1959 264.759C1959 265.683 1952.78 272 1951.87 272C1951.51 272 1950.9 272.45 1950.5 273C1950.1 273.55 1949.38 274 1948.89 274C1948.4 274 1948 274.225 1948 274.5C1948 274.775 1947.32 275 1946.5 275C1945.68 275 1945 275.225 1945 275.5C1945 275.775 1944.32 276 1943.5 276C1942.68 276 1942 276.225 1942 276.5C1942 276.824 1935.67 277 1924 277H1906V245.5V214H1924C1935.67 214 1942 214.176 1942 214.5ZM417.625 417.792C349.632 485.831 294 541.612 294 541.75C294 541.888 304.012 542 316.25 542H338.5L440.25 440.25L542 338.5V316.25C542 304.012 541.831 294.019 541.625 294.042C541.419 294.065 485.618 349.752 417.625 417.792ZM462.625 462.791C419.382 506.08 384 541.612 384 541.75C384 541.888 394.237 542 406.75 542H429.501L485.75 485.75L542 429.501V406.75C542 394.237 541.831 384.019 541.625 384.042C541.419 384.065 505.868 419.501 462.625 462.791ZM169.125 485.291C138.256 516.205 113 541.612 113 541.75C113 541.888 123.238 542 135.751 542H158.501L203.251 497.25C227.863 472.638 248 452.275 248 451.998C248 451.556 225.707 428.935 225.378 429.042C225.308 429.065 199.994 454.376 169.125 485.291ZM508.125 508.29C489.906 526.554 475 541.611 475 541.749C475 541.887 485.014 542 497.253 542H519.505L530.753 530.753L542 519.505V497.253C542 485.014 541.831 475.019 541.625 475.042C541.419 475.064 526.344 490.026 508.125 508.29Z" fill="#6B7280"/>
</svg>
